<svg xmlns="http://www.w3.org/2000/svg" width="1024" height="1024" viewBox="0 0 1024 1024" role="img" aria-label="Emlak Master icon variant C A-frame roof M">
  <defs>
    <linearGradient id="bgC" x1="0%" y1="0%" x2="100%" y2="100%">
      <stop offset="0%" stop-color="#05070e"/>
      <stop offset="48%" stop-color="#0c1428"/>
      <stop offset="100%" stop-color="#040812"/>
    </linearGradient>
    <linearGradient id="goldMainC" x1="50%" y1="0%" x2="50%" y2="100%">
      <stop offset="0%" stop-color="#8a7028"/>
      <stop offset="35%" stop-color="#d4b050"/>
      <stop offset="55%" stop-color="#f0dc90"/>
      <stop offset="72%" stop-color="#b89038"/>
      <stop offset="100%" stop-color="#4a340e"/>
    </linearGradient>
    <linearGradient id="goldRoofC" x1="50%" y1="0%" x2="50%" y2="100%">
      <stop offset="0%" stop-color="#e8d898"/>
      <stop offset="30%" stop-color="#c9a038"/>
      <stop offset="100%" stop-color="#5a4010"/>
    </linearGradient>
    <linearGradient id="winC" x1="50%" y1="0%" x2="50%" y2="100%">
      <stop offset="0%" stop-color="#fff6d8"/>
      <stop offset="50%" stop-color="#e4b848"/>
      <stop offset="100%" stop-color="#8a6018"/>
    </linearGradient>
    <linearGradient id="winFrameC" x1="0%" y1="50%" x2="100%" y2="50%">
      <stop offset="0%" stop-color="#5a4010"/>
      <stop offset="50%" stop-color="#c49a38"/>
      <stop offset="100%" stop-color="#3a2808"/>
    </linearGradient>
    <filter id="rimC" x="-5%" y="-5%" width="110%" height="110%">
      <feGaussianBlur in="SourceAlpha" stdDeviation="2.5" result="a"/>
      <feOffset dx="0" dy="-3" in="a" result="o"/>
      <feComposite in="o" in2="SourceAlpha" operator="arithmetic" k2="-1" k3="1" result="r"/>
      <feColorMatrix in="r" type="matrix"
        values="0 0 0 0 1  0 0 0 0 0.95  0 0 0 0 0.7  0 0 0 0.4 0"/>
    </filter>
  </defs>
  <rect width="1024" height="1024" rx="226" ry="226" fill="url(#bgC)"/>
  <g filter="url(#rimC)">
    <path fill="url(#goldRoofC)"
          d="M 176 840 L 320 260 L 512 168 L 704 260 L 848 840 L 712 840 L 512 320 L 312 840 Z"/>
  </g>
  <path fill="url(#goldMainC)"
        d="M 176 840 L 320 260 L 512 168 L 704 260 L 848 840 L 712 840 L 512 320 L 312 840 Z"/>
  <g transform="translate(512, 398)">
    <rect x="-96" y="-66" width="192" height="132" rx="10" fill="none" stroke="url(#winFrameC)" stroke-width="6"/>
    <line x1="0" y1="-66" x2="0" y2="66" stroke="url(#winFrameC)" stroke-width="4"/>
    <line x1="-96" y1="0" x2="96" y2="0" stroke="url(#winFrameC)" stroke-width="4"/>
    <rect x="-94" y="-64" width="92" height="62" rx="5" fill="url(#winC)" opacity="0.96"/>
    <rect x="2" y="-64" width="92" height="62" rx="5" fill="url(#winC)" opacity="0.92"/>
    <rect x="-94" y="2" width="92" height="62" rx="5" fill="url(#winC)" opacity="0.86"/>
    <rect x="2" y="2" width="92" height="62" rx="5" fill="url(#winC)" opacity="0.8"/>
  </g>
</svg>
