<svg xmlns="http://www.w3.org/2000/svg" width="1024" height="1024" viewBox="0 0 1024 1024" role="img" aria-label="Emlak Master icon variant A strong M stroke">
  <defs>
    <linearGradient id="bgA" x1="0%" y1="0%" x2="100%" y2="100%">
      <stop offset="0%" stop-color="#04060d"/>
      <stop offset="45%" stop-color="#0b1224"/>
      <stop offset="100%" stop-color="#050812"/>
    </linearGradient>
    <linearGradient id="goldBodyA" x1="22%" y1="8%" x2="78%" y2="92%">
      <stop offset="0%" stop-color="#4a3410"/>
      <stop offset="32%" stop-color="#8b6a28"/>
      <stop offset="55%" stop-color="#c9a040"/>
      <stop offset="72%" stop-color="#e4c86a"/>
      <stop offset="100%" stop-color="#7a5a1e"/>
    </linearGradient>
    <linearGradient id="goldEdgeA" x1="0%" y1="0%" x2="0%" y2="100%">
      <stop offset="0%" stop-color="#f2e0a8" stop-opacity="0.55"/>
      <stop offset="40%" stop-color="#d4a838" stop-opacity="0.12"/>
      <stop offset="100%" stop-color="#2a1c08" stop-opacity="0.35"/>
    </linearGradient>
    <linearGradient id="winA" x1="50%" y1="0%" x2="50%" y2="100%">
      <stop offset="0%" stop-color="#fff4d0"/>
      <stop offset="50%" stop-color="#e0b850"/>
      <stop offset="100%" stop-color="#8a6218"/>
    </linearGradient>
    <linearGradient id="winFrameA" x1="0%" y1="50%" x2="100%" y2="50%">
      <stop offset="0%" stop-color="#5c4010"/>
      <stop offset="50%" stop-color="#b89238"/>
      <stop offset="100%" stop-color="#4a340c"/>
    </linearGradient>
    <filter id="glowA" x="-15%" y="-15%" width="130%" height="130%">
      <feGaussianBlur stdDeviation="10" result="b"/>
      <feColorMatrix in="b" type="matrix"
        values="0.95 0.85 0.45 0 0  0.75 0.6 0.2 0 0  0.35 0.25 0.1 0 0  0 0 0 0.35 0"/>
    </filter>
  </defs>
  <rect width="1024" height="1024" rx="226" ry="226" fill="url(#bgA)"/>
  <g filter="url(#glowA)" opacity="0.9">
    <path fill="none" stroke="#a67c28" stroke-width="96" stroke-linecap="square" stroke-linejoin="miter"
          d="M 208 828 L 308 216 L 512 588 L 716 216 L 816 828"/>
  </g>
  <path fill="none" stroke="url(#goldBodyA)" stroke-width="96" stroke-linecap="square" stroke-linejoin="miter"
        d="M 208 828 L 308 216 L 512 588 L 716 216 L 816 828"/>
  <path fill="none" stroke="url(#goldEdgeA)" stroke-width="96" stroke-linecap="square" stroke-linejoin="miter" opacity="0.85"
        d="M 208 828 L 308 216 L 512 588 L 716 216 L 816 828"/>
  <g transform="translate(512, 418)">
    <rect x="-86" y="-58" width="172" height="116" rx="8" fill="none" stroke="url(#winFrameA)" stroke-width="5"/>
    <line x1="0" y1="-58" x2="0" y2="58" stroke="url(#winFrameA)" stroke-width="3.5"/>
    <line x1="-86" y1="0" x2="86" y2="0" stroke="url(#winFrameA)" stroke-width="3.5"/>
    <rect x="-84" y="-56" width="82" height="54" rx="4" fill="url(#winA)" opacity="0.94"/>
    <rect x="2" y="-56" width="82" height="54" rx="4" fill="url(#winA)" opacity="0.9"/>
    <rect x="-84" y="2" width="82" height="54" rx="4" fill="url(#winA)" opacity="0.84"/>
    <rect x="2" y="2" width="82" height="54" rx="4" fill="url(#winA)" opacity="0.8"/>
  </g>
</svg>
