<svg xmlns="http://www.w3.org/2000/svg" width="1024" height="1024" viewBox="0 0 1024 1024" role="img" aria-label="Emlak Master app icon">
  <defs>
    <linearGradient id="bg" x1="0%" y1="0%" x2="100%" y2="100%">
      <stop offset="0%" stop-color="#05070c"/>
      <stop offset="50%" stop-color="#0a1020"/>
      <stop offset="100%" stop-color="#060912"/>
    </linearGradient>
    <linearGradient id="goldMain" x1="18%" y1="12%" x2="82%" y2="92%">
      <stop offset="0%" stop-color="#6a4a18"/>
      <stop offset="28%" stop-color="#9e7a2e"/>
      <stop offset="52%" stop-color="#d4b15a"/>
      <stop offset="68%" stop-color="#e8cc7a"/>
      <stop offset="100%" stop-color="#a67c28"/>
    </linearGradient>
    <linearGradient id="goldHi" x1="50%" y1="0%" x2="50%" y2="100%">
      <stop offset="0%" stop-color="#f0dc98" stop-opacity="0.95"/>
      <stop offset="45%" stop-color="#e8c86a" stop-opacity="0.35"/>
      <stop offset="100%" stop-color="#8a6220" stop-opacity="0"/>
    </linearGradient>
    <linearGradient id="winLight" x1="50%" y1="0%" x2="50%" y2="100%">
      <stop offset="0%" stop-color="#fff2b8"/>
      <stop offset="55%" stop-color="#e8c45a"/>
      <stop offset="100%" stop-color="#9a7020"/>
    </linearGradient>
    <linearGradient id="winFrame" x1="0%" y1="50%" x2="100%" y2="50%">
      <stop offset="0%" stop-color="#7a5a1c"/>
      <stop offset="50%" stop-color="#c9a040"/>
      <stop offset="100%" stop-color="#6a4818"/>
    </linearGradient>
    <filter id="softGlow" x="-20%" y="-20%" width="140%" height="140%">
      <feGaussianBlur in="SourceGraphic" stdDeviation="14" result="b"/>
      <feColorMatrix in="b" type="matrix"
        values="1 0 0 0 0  0 1 0 0 0  0 0 1 0 0  0 0 0 0.45 0" result="c"/>
    </filter>
  </defs>

  <rect width="1024" height="1024" rx="228" ry="228" fill="url(#bg)"/>

  <path filter="url(#softGlow)"
        fill="#c9a040"
        d="M 162 810 L 162 470 L 332 275 L 512 200 L 692 275 L 862 470 L 862 810
           L 700 810 L 512 655 L 324 810 Z"/>

  <g id="m_house_mark">
    <path id="roof_m_body" fill="url(#goldMain)"
          d="M 162 810 L 162 470 L 332 275 L 512 200 L 692 275 L 862 470 L 862 810
             L 700 810 L 512 655 L 324 810 Z"/>
    <path fill="url(#goldHi)" opacity="0.9"
          d="M 162 810 L 162 470 L 332 275 L 512 200 L 692 275 L 862 470 L 862 810
             L 700 810 L 512 655 L 324 810 Z"/>
  </g>

  <g id="window_4pane" transform="translate(512,418)">
    <rect x="-78" y="-52" width="156" height="104" rx="6" fill="none" stroke="url(#winFrame)" stroke-width="5"/>
    <line x1="0" y1="-52" x2="0" y2="52" stroke="url(#winFrame)" stroke-width="3" opacity="0.9"/>
    <line x1="-78" y1="0" x2="78" y2="0" stroke="url(#winFrame)" stroke-width="3" opacity="0.9"/>
    <rect x="-76" y="-50" width="74" height="48" rx="3" fill="url(#winLight)" opacity="0.92"/>
    <rect x="2" y="-50" width="74" height="48" rx="3" fill="url(#winLight)" opacity="0.88"/>
    <rect x="-76" y="2" width="74" height="48" rx="3" fill="url(#winLight)" opacity="0.82"/>
    <rect x="2" y="2" width="74" height="48" rx="3" fill="url(#winLight)" opacity="0.78"/>
  </g>
</svg>
