<svg xmlns="http://www.w3.org/2000/svg" width="1024" height="1024" viewBox="0 0 1024 1024" role="img" aria-label="Emlak Master icon variant B deep valley M">
  <defs>
    <linearGradient id="bgB" x1="0%" y1="0%" x2="100%" y2="100%">
      <stop offset="0%" stop-color="#03050a"/>
      <stop offset="50%" stop-color="#0a1022"/>
      <stop offset="100%" stop-color="#060914"/>
    </linearGradient>
    <linearGradient id="goldBodyB" x1="18%" y1="5%" x2="82%" y2="95%">
      <stop offset="0%" stop-color="#3d2a0c"/>
      <stop offset="28%" stop-color="#7a5a22"/>
      <stop offset="52%" stop-color="#c4a038"/>
      <stop offset="68%" stop-color="#e8d078"/>
      <stop offset="100%" stop-color="#6a4a18"/>
    </linearGradient>
    <radialGradient id="goldSheenB" cx="40%" cy="28%" r="65%">
      <stop offset="0%" stop-color="#fff0c0" stop-opacity="0.45"/>
      <stop offset="45%" stop-color="#d4a830" stop-opacity="0.15"/>
      <stop offset="100%" stop-color="#1a1204" stop-opacity="0"/>
    </radialGradient>
    <linearGradient id="winB" x1="50%" y1="0%" x2="50%" y2="100%">
      <stop offset="0%" stop-color="#ffefc0"/>
      <stop offset="55%" stop-color="#dcb040"/>
      <stop offset="100%" stop-color="#7a5010"/>
    </linearGradient>
    <linearGradient id="winFrameB" x1="0%" y1="50%" x2="100%" y2="50%">
      <stop offset="0%" stop-color="#6a4a14"/>
      <stop offset="50%" stop-color="#c49a30"/>
      <stop offset="100%" stop-color="#4a340c"/>
    </linearGradient>
  </defs>
  <rect width="1024" height="1024" rx="226" ry="226" fill="url(#bgB)"/>
  <g>
    <path fill="url(#goldSheenB)" fill-rule="evenodd" opacity="0.72"
          d="M 196 836 L 296 208 L 512 648 L 728 208 L 828 836 Z M 320 836 L 512 448 L 704 836 Z"/>
    <path fill="url(#goldBodyB)" fill-rule="evenodd"
          d="M 196 836 L 296 208 L 512 648 L 728 208 L 828 836 Z M 320 836 L 512 448 L 704 836 Z"/>
  </g>
  <g transform="translate(512, 428)">
    <rect x="-92" y="-62" width="184" height="124" rx="9" fill="none" stroke="url(#winFrameB)" stroke-width="5.5"/>
    <line x1="0" y1="-62" x2="0" y2="62" stroke="url(#winFrameB)" stroke-width="4"/>
    <line x1="-92" y1="0" x2="92" y2="0" stroke="url(#winFrameB)" stroke-width="4"/>
    <rect x="-90" y="-60" width="88" height="58" rx="5" fill="url(#winB)" opacity="0.95"/>
    <rect x="2" y="-60" width="88" height="58" rx="5" fill="url(#winB)" opacity="0.9"/>
    <rect x="-90" y="2" width="88" height="58" rx="5" fill="url(#winB)" opacity="0.85"/>
    <rect x="2" y="2" width="88" height="58" rx="5" fill="url(#winB)" opacity="0.78"/>
  </g>
</svg>
