<svg width="1024" height="1024" viewBox="0 0 1024 1024" fill="none" xmlns="http://www.w3.org/2000/svg">
  <defs>
    <linearGradient id="bgGradient" x1="140" y1="110" x2="884" y2="914" gradientUnits="userSpaceOnUse">
      <stop offset="0" stop-color="#17181D"/>
      <stop offset="0.55" stop-color="#0F1014"/>
      <stop offset="1" stop-color="#08090C"/>
    </linearGradient>

    <radialGradient id="bgVignette" cx="0" cy="0" r="1" gradientUnits="userSpaceOnUse"
      gradientTransform="translate(512 412) rotate(90) scale(520 560)">
      <stop offset="0" stop-color="#252831" stop-opacity="0.34"/>
      <stop offset="0.52" stop-color="#15171D" stop-opacity="0.16"/>
      <stop offset="1" stop-color="#050608" stop-opacity="0"/>
    </radialGradient>

    <linearGradient id="goldMain" x1="290" y1="154" x2="778" y2="822" gradientUnits="userSpaceOnUse">
      <stop offset="0" stop-color="#FFF1B5"/>
      <stop offset="0.14" stop-color="#F8D97A"/>
      <stop offset="0.38" stop-color="#D8A93B"/>
      <stop offset="0.62" stop-color="#F0C760"/>
      <stop offset="0.82" stop-color="#B97A19"/>
      <stop offset="1" stop-color="#7E4E0D"/>
    </linearGradient>

    <linearGradient id="goldEdge" x1="364" y1="166" x2="706" y2="790" gradientUnits="userSpaceOnUse">
      <stop offset="0" stop-color="#FFF4CB"/>
      <stop offset="0.45" stop-color="#E9BC53"/>
      <stop offset="1" stop-color="#8C5710"/>
    </linearGradient>

    <linearGradient id="windowGold" x1="466" y1="516" x2="558" y2="608" gradientUnits="userSpaceOnUse">
      <stop offset="0" stop-color="#FFF4C9"/>
      <stop offset="0.45" stop-color="#F1D06E"/>
      <stop offset="1" stop-color="#B97A19"/>
    </linearGradient>

    <filter id="symbolGlow" x="112" y="118" width="800" height="792" filterUnits="userSpaceOnUse" color-interpolation-filters="sRGB">
      <feOffset dy="8"/>
      <feGaussianBlur stdDeviation="26"/>
      <feColorMatrix type="matrix" values="0 0 0 0 0.902 0 0 0 0 0.714 0 0 0 0 0.259 0 0 0 0.28 0"/>
      <feBlend in2="SourceGraphic" result="shape"/>
    </filter>

    <filter id="softAura" x="190" y="132" width="644" height="624" filterUnits="userSpaceOnUse" color-interpolation-filters="sRGB">
      <feGaussianBlur stdDeviation="54"/>
    </filter>

    <filter id="windowGlow" x="430" y="482" width="164" height="164" filterUnits="userSpaceOnUse" color-interpolation-filters="sRGB">
      <feGaussianBlur stdDeviation="14"/>
    </filter>

    <filter id="innerShadow" x="64" y="64" width="896" height="896" filterUnits="userSpaceOnUse" color-interpolation-filters="sRGB">
      <feOffset dy="10"/>
      <feGaussianBlur stdDeviation="18"/>
      <feComposite in2="SourceAlpha" operator="arithmetic" k2="-1" k3="1"/>
      <feColorMatrix type="matrix" values="0 0 0 0 0 0 0 0 0 0 0 0 0 0 0 0 0 0 0.42 0"/>
      <feBlend in2="SourceGraphic" result="shape"/>
    </filter>
  </defs>

  <g filter="url(#innerShadow)">
    <rect x="64" y="64" width="896" height="896" rx="208" fill="url(#bgGradient)"/>
    <rect x="64" y="64" width="896" height="896" rx="208" fill="url(#bgVignette)"/>
    <rect x="83" y="83" width="858" height="858" rx="189" stroke="rgba(255,255,255,0.06)" stroke-width="2"/>
  </g>

  <ellipse cx="512" cy="432" rx="204" ry="168" fill="#E8B445" fill-opacity="0.16" filter="url(#softAura)"/>

  <g filter="url(#symbolGlow)">
    <path
      d="M188 804V392L388 188C403 173 423 164 444 164H470C492 164 512 173 527 188L512 332L497 188C512 173 532 164 554 164H580C601 164 621 173 636 188L836 392V804H692V448L512 256L332 448V804H188Z"
      fill="url(#goldMain)"
    />
    <path
      d="M188 804V392L388 188C403 173 423 164 444 164H470C492 164 512 173 527 188L512 332L497 188C512 173 532 164 554 164H580C601 164 621 173 636 188L836 392V804H692V448L512 256L332 448V804H188Z"
      stroke="url(#goldEdge)"
      stroke-width="10"
      stroke-linejoin="round"
    />
  </g>

  <path
    d="M512 338L654 486V756H370V486L512 338Z"
    fill="#0B0C10"
  />

  <path
    d="M512 372L626 490V732H398V490L512 372Z"
    fill="#111318"
    opacity="0.92"
  />

  <g filter="url(#windowGlow)" opacity="0.85">
    <rect x="454" y="506" width="116" height="116" rx="22" fill="#E8B445" fill-opacity="0.22"/>
  </g>

  <g>
    <rect x="468" y="520" width="42" height="42" rx="8" fill="url(#windowGold)"/>
    <rect x="514" y="520" width="42" height="42" rx="8" fill="url(#windowGold)"/>
    <rect x="468" y="566" width="42" height="42" rx="8" fill="url(#windowGold)"/>
    <rect x="514" y="566" width="42" height="42" rx="8" fill="url(#windowGold)"/>

    <rect x="510" y="520" width="4" height="88" rx="2" fill="#3A2508" fill-opacity="0.72"/>
    <rect x="468" y="562" width="88" height="4" rx="2" fill="#3A2508" fill-opacity="0.72"/>
  </g>

  <path
    d="M512 338L654 486V756H370V486L512 338Z"
    stroke="rgba(255,255,255,0.05)"
    stroke-width="2"
  />
</svg>
