<svg xmlns="http://www.w3.org/2000/svg" width="1024" height="1024" viewBox="0 0 1024 1024" role="img" aria-label="Emlak Master variation C mono first">
  <defs>
    <radialGradient id="bgV" cx="50%" cy="44%" r="72%">
      <stop offset="0%" stop-color="#0c121c"/>
      <stop offset="75%" stop-color="#05080e"/>
      <stop offset="100%" stop-color="#000000"/>
    </radialGradient>
    <!-- Flatter gold for silhouette clarity; less specular -->
    <linearGradient id="gM" x1="30%" y1="12%" x2="70%" y2="88%">
      <stop offset="0%" stop-color="#2a2010"/>
      <stop offset="35%" stop-color="#8a6820"/>
      <stop offset="55%" stop-color="#c9a038"/>
      <stop offset="70%" stop-color="#d8b050"/>
      <stop offset="100%" stop-color="#3a2808"/>
    </linearGradient>
    <linearGradient id="gHi" x1="0%" y1="0%" x2="100%" y2="100%">
      <stop offset="0%" stop-color="#f8e8c0" stop-opacity="0.22"/>
      <stop offset="100%" stop-color="#100804" stop-opacity="0.35"/>
    </linearGradient>
    <linearGradient id="wG" x1="50%" y1="0%" x2="50%" y2="100%">
      <stop offset="0%" stop-color="#eee0c0"/>
      <stop offset="50%" stop-color="#c9a028"/>
      <stop offset="100%" stop-color="#503808"/>
    </linearGradient>
    <linearGradient id="wF" x1="0%" y1="50%" x2="100%" y2="50%">
      <stop offset="0%" stop-color="#2a1a06"/>
      <stop offset="50%" stop-color="#c9a030"/>
      <stop offset="100%" stop-color="#140c04"/>
    </linearGradient>
    <filter id="h1" x="-22%" y="-22%" width="144%" height="144%">
      <feGaussianBlur stdDeviation="14" result="b"/>
      <feColorMatrix in="b" type="matrix"
        values="1 0.55 0.18 0 0  0.8 0.45 0.08 0 0  0.28 0.16 0.04 0 0  0 0 0 0.38 0"/>
    </filter>
    <filter id="bl" x="-6%" y="-6%" width="112%" height="112%">
      <feGaussianBlur stdDeviation="3"/>
      <feColorMatrix type="matrix"
        values="1 0.45 0.15 0 0  0.55 0.35 0.1 0 0  0.2 0.12 0.04 0 0  0 0 0 0.12 0"/>
    </filter>
    <linearGradient id="rim" x1="0%" y1="100%" x2="100%" y2="0%">
      <stop offset="0%" stop-color="#907028" stop-opacity="0.4"/>
      <stop offset="100%" stop-color="#705018" stop-opacity="0.32"/>
    </linearGradient>
  </defs>
  <rect width="1024" height="1024" rx="218" fill="#000"/>
  <rect width="1024" height="1024" rx="218" fill="url(#bgV)" opacity="0.94"/>
  <rect x="2.5" y="2.5" width="1019" height="1019" rx="216" fill="none" stroke="url(#rim)" stroke-width="1.5" opacity="0.38"/>
  <!-- C: thicker chevron feel, slightly wider legs at foot; same bay as A -->
  <g filter="url(#h1)" opacity="0.58">
    <path fill="#6a5218" fill-rule="evenodd" d="
      M 190 886 L 190 394 L 512 146 L 834 394 L 834 886 L 638 886 L 512 708 L 386 886 Z
      M 402 426 L 622 426 Q 630 426 630 434 L 630 610 Q 630 618 622 618 L 402 618 Q 394 618 394 610 L 394 434 Q 394 426 402 426 Z"/>
  </g>
  <g filter="url(#bl)" opacity="0.28">
    <path fill="url(#gM)" fill-rule="evenodd" d="
      M 190 886 L 190 394 L 512 146 L 834 394 L 834 886 L 638 886 L 512 708 L 386 886 Z
      M 402 426 L 622 426 Q 630 426 630 434 L 630 610 Q 630 618 622 618 L 402 618 Q 394 618 394 610 L 394 434 Q 394 426 402 426 Z"/>
  </g>
  <path fill="url(#gM)" fill-rule="evenodd" d="
    M 190 886 L 190 394 L 512 146 L 834 394 L 834 886 L 638 886 L 512 708 L 386 886 Z
    M 402 426 L 622 426 Q 630 426 630 434 L 630 610 Q 630 618 622 618 L 402 618 Q 394 618 394 610 L 394 434 Q 394 426 402 426 Z"/>
  <path fill="url(#gHi)" fill-rule="evenodd" opacity="0.28" d="
    M 190 886 L 190 394 L 512 146 L 834 394 L 834 886 L 638 886 L 512 708 L 386 886 Z
    M 402 426 L 622 426 Q 630 426 630 434 L 630 610 Q 630 618 622 618 L 402 618 Q 394 618 394 610 L 394 434 Q 394 426 402 426 Z"/>
  <g transform="translate(512, 468)">
    <rect x="-38" y="-32" width="76" height="64" rx="3.5" fill="none" stroke="url(#wF)" stroke-width="2.8"/>
    <line x1="0" y1="-32" x2="0" y2="32" stroke="url(#wF)" stroke-width="2"/>
    <line x1="-38" y1="0" x2="38" y2="0" stroke="url(#wF)" stroke-width="2"/>
    <rect x="-36" y="-30" width="34" height="28" rx="1" fill="url(#wG)" opacity="0.9"/>
    <rect x="2" y="-30" width="34" height="28" rx="1" fill="url(#wG)" opacity="0.84"/>
    <rect x="-36" y="2" width="34" height="28" rx="1" fill="url(#wG)" opacity="0.78"/>
    <rect x="2" y="2" width="34" height="28" rx="1" fill="url(#wG)" opacity="0.72"/>
  </g>
</svg>
